<svg width="370" height="94" viewBox="0 0 370 94" fill="none" xmlns="http://www.w3.org/2000/svg">
<path d="M37.488 91.48C29.872 91.48 23.248 90.104 17.616 87.352C11.984 84.536 7.66398 80.568 4.65598 75.448C1.64798 70.328 0.143982 64.376 0.143982 57.592C0.143982 48.184 1.90398 39.832 5.42398 32.536C9.00798 25.24 13.84 19.608 19.92 15.64C26 11.608 32.752 9.59201 40.176 9.59201C47.088 9.59201 52.336 11.384 55.92 14.968C59.504 18.488 61.296 23.16 61.296 28.984C61.296 32.888 60.592 36.024 59.184 38.392C57.84 40.76 55.888 41.944 53.328 41.944C51.536 41.944 50.128 41.528 49.104 40.696C48.08 39.864 47.568 38.648 47.568 37.048C47.568 36.472 47.696 35.416 47.952 33.88C48.336 31.96 48.528 30.424 48.528 29.272C48.528 23.448 45.424 20.536 39.216 20.536C34.992 20.536 30.96 21.912 27.12 24.664C23.28 27.416 20.176 31.48 17.808 36.856C15.44 42.168 14.256 48.504 14.256 55.864C14.256 63.544 16.4 69.496 20.688 73.72C24.976 77.88 31.312 79.96 39.696 79.96C43.856 79.96 48.048 79.448 52.272 78.424C56.56 77.336 61.296 75.704 66.48 73.528C67.44 73.144 68.24 72.952 68.88 72.952C69.904 72.952 70.672 73.336 71.184 74.104C71.696 74.872 71.952 75.864 71.952 77.08C71.952 80.984 69.84 83.864 65.616 85.72C61.072 87.704 56.336 89.176 51.408 90.136C46.544 91.032 41.904 91.48 37.488 91.48Z" fill="black"/>
<path d="M117.7 69.592C118.532 69.592 119.172 69.976 119.62 70.744C120.132 71.512 120.388 72.568 120.388 73.912C120.388 76.472 119.78 78.456 118.564 79.864C115.62 83.256 112.58 86.04 109.444 88.216C106.372 90.392 102.852 91.48 98.8845 91.48C95.6205 91.48 93.1565 90.552 91.4925 88.696C89.8285 86.776 88.9965 84.024 88.9965 80.44C88.9965 78.648 89.4445 75.448 90.3405 70.84C91.1725 66.808 91.5885 64.024 91.5885 62.488C91.5885 61.464 91.2365 60.952 90.5325 60.952C89.7005 60.952 88.5165 62.04 86.9805 64.216C85.4445 66.328 83.9085 69.144 82.3725 72.664C80.8365 76.184 79.5885 79.896 78.6285 83.8C77.4125 88.92 74.4045 91.48 69.6045 91.48C67.6845 91.48 66.4045 90.808 65.7645 89.464C65.1885 88.056 64.9005 85.56 64.9005 81.976C64.9005 79.928 64.9325 78.296 64.9965 77.08L65.0925 69.4C65.0925 59.544 66.0845 49.272 68.0685 38.584C70.1165 27.896 73.0925 18.936 76.9965 11.704C80.9645 4.40801 85.7005 0.76001 91.2045 0.76001C94.1485 0.76001 96.5165 2.04001 98.3085 4.60001C100.164 7.09601 101.092 10.36 101.092 14.392C101.092 20.856 99.2045 27.576 95.4285 34.552C91.6525 41.464 85.5085 49.56 76.9965 58.84C76.8045 62.168 76.7085 65.592 76.7085 69.112C78.8205 63.672 81.1565 59.256 83.7165 55.864C86.3405 52.408 88.9005 49.944 91.3965 48.472C93.9565 47 96.2925 46.264 98.4045 46.264C102.564 46.264 104.644 48.344 104.644 52.504C104.644 55 103.94 59.512 102.532 66.04C101.316 71.608 100.708 75.288 100.708 77.08C100.708 79.64 101.636 80.92 103.492 80.92C104.772 80.92 106.276 80.152 108.004 78.616C109.796 77.016 112.164 74.456 115.108 70.936C115.876 70.04 116.74 69.592 117.7 69.592ZM89.1885 10.264C88.0365 10.264 86.7565 11.928 85.3485 15.256C83.9405 18.52 82.5645 22.968 81.2205 28.6C79.9405 34.168 78.8845 40.248 78.0525 46.84C82.0205 42.168 85.2845 37.08 87.8445 31.576C90.4685 26.072 91.7805 21.08 91.7805 16.6C91.7805 14.552 91.5565 12.984 91.1085 11.896C90.6605 10.808 90.0205 10.264 89.1885 10.264Z" fill="black"/>
<path d="M125.184 39.928C122.496 39.928 120.48 39.32 119.136 38.104C117.792 36.824 117.12 35.064 117.12 32.824C117.12 30.584 117.984 28.728 119.712 27.256C121.504 25.72 123.712 24.952 126.336 24.952C128.704 24.952 130.624 25.528 132.096 26.68C133.568 27.832 134.304 29.464 134.304 31.576C134.304 34.136 133.472 36.184 131.808 37.72C130.144 39.192 127.936 39.928 125.184 39.928ZM124.416 91.48C120.256 91.48 117.216 90.008 115.296 87.064C113.44 84.12 112.512 80.216 112.512 75.352C112.512 72.472 112.864 68.792 113.568 64.312C114.336 59.768 115.296 55.544 116.448 51.64C117.024 49.592 117.792 48.184 118.752 47.416C119.712 46.648 121.248 46.264 123.36 46.264C126.624 46.264 128.256 47.352 128.256 49.528C128.256 51.128 127.648 54.84 126.432 60.664C124.896 67.704 124.128 72.472 124.128 74.968C124.128 76.888 124.384 78.36 124.896 79.384C125.408 80.408 126.272 80.92 127.488 80.92C128.64 80.92 130.08 80.12 131.808 78.52C133.536 76.92 135.84 74.392 138.72 70.936C139.488 70.04 140.352 69.592 141.312 69.592C142.144 69.592 142.784 69.976 143.232 70.744C143.744 71.512 144 72.568 144 73.912C144 76.472 143.392 78.456 142.176 79.864C135.84 87.608 129.92 91.48 124.416 91.48Z" fill="black"/>
<path d="M172.617 69.592C173.449 69.592 174.089 69.976 174.537 70.744C175.049 71.512 175.305 72.568 175.305 73.912C175.305 76.472 174.697 78.456 173.481 79.864C170.729 83.256 167.721 86.04 164.457 88.216C161.257 90.392 157.609 91.48 153.513 91.48C147.881 91.48 143.689 88.92 140.937 83.8C138.249 78.68 136.905 72.056 136.905 63.928C136.905 56.12 137.897 47.224 139.881 37.24C141.929 27.256 144.905 18.68 148.809 11.512C152.777 4.34401 157.481 0.76001 162.921 0.76001C165.993 0.76001 168.393 2.20001 170.121 5.08001C171.913 7.89601 172.809 11.96 172.809 17.272C172.809 24.888 170.697 33.72 166.473 43.768C162.249 53.816 156.521 63.768 149.289 73.624C149.737 76.248 150.473 78.136 151.497 79.288C152.521 80.376 153.865 80.92 155.529 80.92C158.153 80.92 160.457 80.184 162.441 78.712C164.425 77.176 166.953 74.584 170.025 70.936C170.793 70.04 171.657 69.592 172.617 69.592ZM160.809 10.264C159.337 10.264 157.673 12.92 155.817 18.232C153.961 23.544 152.329 30.136 150.921 38.008C149.513 45.88 148.745 53.432 148.617 60.664C153.161 53.176 156.777 45.688 159.465 38.2C162.153 30.648 163.497 23.768 163.497 17.56C163.497 12.696 162.601 10.264 160.809 10.264Z" fill="black"/>
<path d="M221.136 69.592C221.968 69.592 222.608 69.976 223.056 70.744C223.568 71.512 223.824 72.568 223.824 73.912C223.824 76.472 223.216 78.456 222 79.864C219.376 83.064 216.496 85.816 213.36 88.12C210.224 90.36 207.12 91.48 204.048 91.48C199.184 91.48 195.472 88.632 192.912 82.936C190.224 86.328 187.856 88.6 185.808 89.752C183.824 90.904 181.488 91.48 178.8 91.48C174.896 91.48 171.664 90.04 169.104 87.16C166.608 84.216 165.36 80.408 165.36 75.736C165.36 70.616 166.448 65.88 168.624 61.528C170.8 57.112 173.776 53.528 177.552 50.776C181.392 47.96 185.68 46.296 190.416 45.784C191.632 33.368 193.936 22.776 197.328 14.008C200.784 5.17601 205.296 0.76001 210.864 0.76001C213.616 0.76001 215.888 2.00801 217.68 4.50401C219.536 7.00001 220.464 10.776 220.464 15.832C220.464 23 218.704 31.384 215.184 40.984C211.664 50.584 206.96 60.44 201.072 70.552C201.328 74.264 201.872 76.92 202.704 78.52C203.6 80.12 204.72 80.92 206.064 80.92C207.792 80.92 209.552 80.152 211.344 78.616C213.136 77.08 215.536 74.52 218.544 70.936C219.312 70.04 220.176 69.592 221.136 69.592ZM209.808 10.168C208.592 10.168 207.376 12.344 206.16 16.696C204.944 20.984 203.888 26.616 202.992 33.592C202.16 40.568 201.552 47.864 201.168 55.48C208.336 39.864 211.92 27.32 211.92 17.848C211.92 15.416 211.696 13.528 211.248 12.184C210.864 10.84 210.384 10.168 209.808 10.168ZM182.16 81.784C183.376 81.784 184.592 81.304 185.808 80.344C187.024 79.32 188.56 77.464 190.416 74.776C189.776 71.32 189.456 67.448 189.456 63.16C189.456 61.624 189.52 59.128 189.648 55.672C186.128 56.76 183.184 59.128 180.816 62.776C178.512 66.36 177.36 70.36 177.36 74.776C177.36 79.448 178.96 81.784 182.16 81.784Z" fill="black"/>
<path d="M228.59 39.928C225.902 39.928 223.886 39.32 222.542 38.104C221.198 36.824 220.526 35.064 220.526 32.824C220.526 30.584 221.39 28.728 223.118 27.256C224.91 25.72 227.118 24.952 229.742 24.952C232.11 24.952 234.03 25.528 235.502 26.68C236.974 27.832 237.71 29.464 237.71 31.576C237.71 34.136 236.878 36.184 235.214 37.72C233.55 39.192 231.342 39.928 228.59 39.928ZM227.822 91.48C223.662 91.48 220.622 90.008 218.702 87.064C216.846 84.12 215.918 80.216 215.918 75.352C215.918 72.472 216.27 68.792 216.974 64.312C217.742 59.768 218.702 55.544 219.854 51.64C220.43 49.592 221.198 48.184 222.158 47.416C223.118 46.648 224.654 46.264 226.766 46.264C230.03 46.264 231.662 47.352 231.662 49.528C231.662 51.128 231.054 54.84 229.838 60.664C228.302 67.704 227.534 72.472 227.534 74.968C227.534 76.888 227.79 78.36 228.302 79.384C228.814 80.408 229.678 80.92 230.894 80.92C232.046 80.92 233.486 80.12 235.214 78.52C236.942 76.92 239.246 74.392 242.126 70.936C242.894 70.04 243.758 69.592 244.718 69.592C245.55 69.592 246.19 69.976 246.638 70.744C247.15 71.512 247.406 72.568 247.406 73.912C247.406 76.472 246.798 78.456 245.582 79.864C239.246 87.608 233.326 91.48 227.822 91.48Z" fill="black"/>
<path d="M257.495 93.592C254.167 93.592 251.607 92.824 249.815 91.288C248.087 89.752 247.223 88.024 247.223 86.104C247.223 84.44 247.831 83 249.047 81.784C250.263 80.568 252.055 79.96 254.423 79.96C255.255 79.96 256.215 80.056 257.303 80.248C258.455 80.376 259.319 80.472 259.895 80.536C259.831 78.872 259.447 77.304 258.743 75.832C258.103 74.36 257.271 72.952 256.247 71.608C255.223 70.2 254.263 68.984 253.367 67.96C251.383 71.736 249.399 74.872 247.415 77.368C245.495 79.864 243.383 82.232 241.079 84.472C239.927 85.624 238.711 86.2 237.431 86.2C236.407 86.2 235.575 85.848 234.935 85.144C234.295 84.376 233.975 83.448 233.975 82.36C233.975 81.08 234.423 79.896 235.319 78.808L236.567 77.272C240.087 72.92 242.743 69.336 244.535 66.52C245.623 64.664 246.903 62.2 248.375 59.128C249.847 55.992 251.287 52.76 252.695 49.432C253.911 46.616 256.439 45.208 260.279 45.208C262.071 45.208 263.319 45.368 264.023 45.688C264.727 46.008 265.079 46.52 265.079 47.224C265.079 47.608 264.951 48.216 264.695 49.048C264.439 49.88 264.087 50.712 263.639 51.544C262.487 53.848 261.911 55.8 261.911 57.4C261.911 58.36 262.231 59.416 262.871 60.568C263.575 61.72 264.631 63.16 266.039 64.888C268.087 67.576 269.623 69.88 270.647 71.8C271.735 73.656 272.279 75.704 272.279 77.944C272.279 78.584 272.215 79.48 272.087 80.632C275.223 79.416 278.903 76.184 283.127 70.936C283.895 70.04 284.759 69.592 285.719 69.592C286.551 69.592 287.191 69.976 287.639 70.744C288.151 71.512 288.407 72.568 288.407 73.912C288.407 76.344 287.799 78.328 286.583 79.864C283.383 83.832 280.311 86.552 277.367 88.024C274.487 89.432 270.903 90.2 266.615 90.328C264.055 92.504 261.015 93.592 257.495 93.592Z" fill="black"/>
<path d="M333.888 69.592C334.72 69.592 335.36 69.976 335.808 70.744C336.32 71.512 336.576 72.568 336.576 73.912C336.576 76.472 335.968 78.456 334.752 79.864C331.808 83.256 328.768 86.04 325.632 88.216C322.56 90.392 319.04 91.48 315.072 91.48C311.808 91.48 309.344 90.552 307.68 88.696C306.016 86.776 305.184 84.024 305.184 80.44C305.184 78.648 305.632 75.448 306.528 70.84C307.36 66.808 307.776 64.024 307.776 62.488C307.776 61.464 307.424 60.952 306.72 60.952C305.888 60.952 304.704 62.04 303.168 64.216C301.632 66.328 300.096 69.144 298.56 72.664C297.024 76.184 295.776 79.896 294.816 83.8C293.6 88.92 290.592 91.48 285.792 91.48C283.872 91.48 282.592 90.808 281.952 89.464C281.376 88.056 281.088 85.56 281.088 81.976C281.088 79.928 281.12 78.296 281.184 77.08L281.28 69.4C281.28 59.544 282.272 49.272 284.256 38.584C286.304 27.896 289.28 18.936 293.184 11.704C297.152 4.40801 301.888 0.76001 307.392 0.76001C310.336 0.76001 312.704 2.04001 314.496 4.60001C316.352 7.09601 317.28 10.36 317.28 14.392C317.28 20.856 315.392 27.576 311.616 34.552C307.84 41.464 301.696 49.56 293.184 58.84C292.992 62.168 292.896 65.592 292.896 69.112C295.008 63.672 297.344 59.256 299.904 55.864C302.528 52.408 305.088 49.944 307.584 48.472C310.144 47 312.48 46.264 314.592 46.264C318.752 46.264 320.832 48.344 320.832 52.504C320.832 55 320.128 59.512 318.72 66.04C317.504 71.608 316.896 75.288 316.896 77.08C316.896 79.64 317.824 80.92 319.68 80.92C320.96 80.92 322.464 80.152 324.192 78.616C325.984 77.016 328.352 74.456 331.296 70.936C332.064 70.04 332.928 69.592 333.888 69.592ZM305.376 10.264C304.224 10.264 302.944 11.928 301.536 15.256C300.128 18.52 298.752 22.968 297.408 28.6C296.128 34.168 295.072 40.248 294.24 46.84C298.208 42.168 301.472 37.08 304.032 31.576C306.656 26.072 307.968 21.08 307.968 16.6C307.968 14.552 307.744 12.984 307.296 11.896C306.848 10.808 306.208 10.264 305.376 10.264Z" fill="black"/>
<path d="M362.779 46.264C364.827 46.264 366.363 46.808 367.387 47.896C368.475 48.92 369.019 50.456 369.019 52.504C369.019 54.168 368.667 57.304 367.963 61.912C367.323 65.816 366.811 69.528 366.427 73.048C366.043 76.504 365.851 80.376 365.851 84.664C365.851 87.096 365.339 88.856 364.315 89.944C363.355 90.968 361.755 91.48 359.515 91.48C357.403 91.48 355.867 90.936 354.907 89.848C353.947 88.76 353.467 87.128 353.467 84.952C353.467 82.392 353.915 78.168 354.811 72.28C355.579 67.16 355.963 63.896 355.963 62.488C355.963 61.464 355.611 60.952 354.907 60.952C354.075 60.952 352.891 62.04 351.355 64.216C349.819 66.328 348.283 69.144 346.747 72.664C345.211 76.184 343.963 79.896 343.003 83.8C342.299 86.808 341.467 88.856 340.507 89.944C339.611 90.968 338.171 91.48 336.187 91.48C334.203 91.48 332.731 90.776 331.771 89.368C330.875 87.896 330.267 85.656 329.947 82.648C329.627 79.64 329.467 75.224 329.467 69.4C329.467 59.544 330.459 49.272 332.443 38.584C334.491 27.896 337.467 18.936 341.371 11.704C345.339 4.40801 350.075 0.76001 355.579 0.76001C358.523 0.76001 360.891 2.04001 362.683 4.60001C364.539 7.09601 365.467 10.36 365.467 14.392C365.467 20.856 363.579 27.576 359.803 34.552C356.027 41.464 349.883 49.56 341.371 58.84C341.179 62.168 341.083 65.592 341.083 69.112C343.195 63.672 345.531 59.256 348.091 55.864C350.715 52.408 353.275 49.944 355.771 48.472C358.331 47 360.667 46.264 362.779 46.264ZM353.563 10.264C352.411 10.264 351.131 11.928 349.723 15.256C348.315 18.52 346.939 22.968 345.595 28.6C344.315 34.168 343.259 40.248 342.427 46.84C346.395 42.168 349.659 37.08 352.219 31.576C354.843 26.072 356.155 21.08 356.155 16.6C356.155 14.552 355.931 12.984 355.483 11.896C355.035 10.808 354.395 10.264 353.563 10.264Z" fill="black"/>
</svg>
