<svg width="318" height="72" viewBox="0 0 318 72" fill="none" xmlns="http://www.w3.org/2000/svg">
<path d="M61.2737 45.8947C62.2413 45.8947 63.0154 46.1364 63.596 46.6198C64.1765 47.0548 64.4668 47.7557 64.4668 48.7224V51.55C64.4668 52.5167 64.1765 53.2418 63.596 53.7251C63.0154 54.1601 62.2413 54.3776 61.2737 54.3776H49.0818C47.0015 54.3776 45.9613 53.4351 45.9613 51.55V48.7224C45.9613 46.8373 47.0015 45.8947 49.0818 45.8947H49.9527V35.0917C49.9527 31.5632 49.5898 29.1223 48.8641 27.7689C48.1868 26.4155 46.9289 25.7388 45.0905 25.7388C43.7358 25.7388 42.4537 26.1738 41.2442 27.0438C40.0347 27.9139 39.0671 29.0981 38.3414 30.5965C37.6641 32.0466 37.3254 33.5933 37.3254 35.2367V45.8947H38.1963C39.1155 45.8947 39.8654 46.1364 40.446 46.6198C41.0265 47.0548 41.3168 47.7557 41.3168 48.7224V51.55C41.3168 52.5167 41.0265 53.2418 40.446 53.7251C39.8654 54.1601 39.1155 54.3776 38.1963 54.3776H26.4398C24.3595 54.3776 23.3193 53.4351 23.3193 51.55V48.7224C23.3193 46.8373 24.3595 45.8947 26.4398 45.8947H27.3107V35.0917C27.3107 31.5632 26.9478 29.1223 26.2221 27.7689C25.5448 26.4155 24.2869 25.7388 22.4485 25.7388C21.0938 25.7388 19.8117 26.1738 18.6022 27.0438C17.3927 27.9139 16.4251 29.0981 15.6994 30.5965C15.0221 32.0466 14.6834 33.5933 14.6834 35.2367V45.8947H15.5543C16.4735 45.8947 17.2234 46.1364 17.8039 46.6198C18.3845 47.0548 18.6748 47.7557 18.6748 48.7224V51.55C18.6748 52.5167 18.3845 53.2418 17.8039 53.7251C17.2234 54.1601 16.4735 54.3776 15.5543 54.3776H3.28984C2.37062 54.3776 1.62072 54.1601 1.04016 53.7251C0.459593 53.2418 0.169312 52.5167 0.169312 51.55V48.7224C0.169312 47.7557 0.459593 47.0548 1.04016 46.6198C1.62072 46.1364 2.37062 45.8947 3.28984 45.8947H4.66868V26.6088H3.28984C2.37062 26.6088 1.62072 26.3913 1.04016 25.9563C0.459593 25.4729 0.169312 24.7479 0.169312 23.7812V20.9535C0.169312 19.0684 1.20949 18.1259 3.28984 18.1259H11.3452C12.3128 18.1259 13.1111 18.4401 13.74 19.0684C14.3689 19.6968 14.6834 20.4943 14.6834 21.4611V25.3762C15.651 23.0078 17.1024 21.0985 19.0376 19.6485C20.9729 18.1501 23.0532 17.4009 25.2787 17.4009C28.2299 17.4009 30.6489 18.1259 32.5358 19.576C34.4226 21.026 35.7531 23.1286 36.5271 25.8838C37.9302 23.177 39.6235 21.0985 41.6071 19.6485C43.6391 18.1501 45.7436 17.4009 47.9207 17.4009C51.8395 17.4009 54.8149 18.6818 56.8469 21.2435C58.9272 23.757 59.9674 27.4305 59.9674 32.2641V45.8947H61.2737ZM104.676 45.8947C105.596 45.8947 106.346 46.1364 106.926 46.6198C107.507 47.0548 107.797 47.7557 107.797 48.7224V51.55C107.797 52.5167 107.507 53.2418 106.926 53.7251C106.346 54.1601 105.596 54.3776 104.676 54.3776H96.6211C95.7019 54.3776 94.9036 54.0635 94.2262 53.4351C93.5973 52.7584 93.2828 51.9609 93.2828 51.0425V47.5623C92.3152 49.7858 90.8396 51.5983 88.856 53.0001C86.9208 54.4018 84.8405 55.1027 82.615 55.1027C79.2767 55.1027 76.5674 54.1118 74.4871 52.13C72.4551 50.1483 71.4391 47.5381 71.4391 44.2997C71.4391 40.6261 72.6244 37.9193 74.9951 36.1793C77.3657 34.3908 80.9459 33.4966 85.7355 33.4966C87.961 33.4966 90.4768 33.7625 93.2828 34.2942V31.6115C93.2828 29.5331 92.7265 27.938 91.6137 26.8263C90.5494 25.7146 89.0012 25.1587 86.9692 25.1587C85.6629 25.1587 84.6953 25.3762 84.0664 25.8113C83.9696 27.3097 83.4132 28.5664 82.3973 29.5814C81.3813 30.5482 80.1234 31.0315 78.6236 31.0315C76.9787 31.0315 75.6482 30.5482 74.6322 29.5814C73.6162 28.5664 73.1082 27.2613 73.1082 25.6663C73.1082 23.1528 74.3903 21.1469 76.9545 19.6485C79.5186 18.1501 82.8569 17.4009 86.9692 17.4009C92.3394 17.4009 96.4034 18.7784 99.161 21.5336C101.919 24.2404 103.298 28.0589 103.298 32.9891V45.8947H104.676ZM85.6629 47.7073C87.5982 47.7073 89.2915 46.9098 90.7429 45.3147C92.2427 43.6713 93.0893 41.7137 93.2828 39.4419C91.6863 39.1519 89.6785 39.0069 87.2595 39.0069C85.2275 39.0069 83.7519 39.3936 82.8327 40.167C81.9135 40.892 81.4538 42.0762 81.4538 43.7196C81.4538 44.928 81.8409 45.8947 82.615 46.6198C83.3891 47.3448 84.405 47.7073 85.6629 47.7073ZM151.948 18.1259C152.915 18.1259 153.689 18.3676 154.27 18.8509C154.85 19.2859 155.141 19.9868 155.141 20.9535V23.7812C155.141 24.7479 154.85 25.4729 154.27 25.9563C153.689 26.3913 152.915 26.6088 151.948 26.6088H150.641V52.0575C150.641 58.4378 148.996 63.3197 145.706 66.7032C142.465 70.0867 137.796 71.7785 131.7 71.7785C127.249 71.7785 123.669 70.9568 120.96 69.3134C118.299 67.67 116.969 65.519 116.969 62.8605C116.969 61.2655 117.477 59.9846 118.493 59.0179C119.509 58.0512 120.839 57.5678 122.484 57.5678C124.032 57.5678 125.314 58.0753 126.33 59.0904C127.395 60.1538 127.927 61.4588 127.927 63.0056C128.846 63.2956 130.055 63.4406 131.555 63.4406C137.603 63.4406 140.627 59.9362 140.627 52.9276V47.5623C139.756 49.8341 138.28 51.6708 136.2 53.0726C134.119 54.426 131.821 55.1027 129.306 55.1027C124.951 55.1027 121.492 53.4834 118.928 50.2449C116.412 46.9581 115.154 42.5354 115.154 36.9768C115.154 30.7898 116.582 25.9804 119.436 22.5486C122.29 19.1168 126.282 17.4009 131.41 17.4009C135.764 17.4009 139.224 19.3343 141.788 23.2011L142.441 20.446C142.634 19.576 142.973 18.9718 143.457 18.6334C143.941 18.2951 144.57 18.1259 145.344 18.1259H151.948ZM132.426 46.7648C133.926 46.7648 135.305 46.3056 136.563 45.3872C137.82 44.4688 138.812 43.2121 139.538 41.617C140.264 40.0219 140.627 38.2819 140.627 36.3968V29.2189C139.659 28.1072 138.498 27.2613 137.143 26.6813C135.789 26.0529 134.385 25.7388 132.934 25.7388C130.515 25.7388 128.652 26.7055 127.346 28.6389C126.04 30.524 125.387 33.255 125.387 36.8318C125.387 39.9736 125.991 42.4146 127.201 44.1546C128.459 45.8947 130.201 46.7648 132.426 46.7648ZM170.814 13.1957C168.976 13.1957 167.428 12.5673 166.17 11.3106C164.96 10.0538 164.356 8.5071 164.356 6.67034C164.356 4.83358 164.96 3.31101 166.17 2.10262C167.428 0.845896 168.976 0.217529 170.814 0.217529C172.653 0.217529 174.177 0.845896 175.386 2.10262C176.644 3.31101 177.273 4.83358 177.273 6.67034C177.273 8.5071 176.644 10.0538 175.386 11.3106C174.177 12.5673 172.653 13.1957 170.814 13.1957ZM165.734 54.3776C164.815 54.3776 164.065 54.1601 163.485 53.7251C162.904 53.2418 162.614 52.5167 162.614 51.55V48.7224C162.614 47.7557 162.904 47.0548 163.485 46.6198C164.065 46.1364 164.815 45.8947 165.734 45.8947H167.113V26.6088H165.734C164.815 26.6088 164.065 26.3913 163.485 25.9563C162.904 25.4729 162.614 24.7479 162.614 23.7812V20.9535C162.614 19.0684 163.654 18.1259 165.734 18.1259H173.79C174.757 18.1259 175.556 18.4401 176.185 19.0684C176.814 19.6968 177.128 20.4943 177.128 21.4611V45.8947H178.434C179.402 45.8947 180.176 46.1364 180.757 46.6198C181.337 47.0548 181.627 47.7557 181.627 48.7224V51.55C181.627 52.5167 181.337 53.2418 180.757 53.7251C180.176 54.1601 179.402 54.3776 178.434 54.3776H165.734ZM217.404 42.1971C218.468 42.1971 219.387 42.5112 220.161 43.1396C220.935 43.768 221.322 44.6138 221.322 45.6772C221.322 46.8373 220.911 47.9973 220.089 49.1574C218.782 50.9458 217.065 52.3959 214.936 53.5076C212.856 54.571 210.316 55.1027 207.316 55.1027C203.543 55.1027 200.253 54.3051 197.447 52.7101C194.689 51.115 192.56 48.8915 191.061 46.0397C189.609 43.1396 188.883 39.8044 188.883 36.0343C188.883 32.2157 189.633 28.9047 191.133 26.1013C192.681 23.2978 194.81 21.1469 197.519 19.6485C200.277 18.1501 203.398 17.4009 206.881 17.4009C209.735 17.4009 212.3 17.9084 214.573 18.9234C216.896 19.9385 218.71 21.3402 220.016 23.1286C221.322 24.8687 221.976 26.8263 221.976 29.0014C221.976 30.7898 221.395 32.2399 220.234 33.3516C219.073 34.4633 217.573 35.0192 215.735 35.0192C213.896 35.0192 212.42 34.5117 211.308 33.4966C210.195 32.4333 209.639 31.0799 209.639 29.4364C209.639 28.4214 209.808 27.5513 210.147 26.8263C209.227 26.1013 207.994 25.7388 206.445 25.7388C204.026 25.7388 202.188 26.6088 200.93 28.3489C199.721 30.089 199.116 32.6266 199.116 35.9618C199.116 39.2486 199.866 41.8829 201.366 43.8646C202.914 45.7981 205.042 46.7648 207.752 46.7648C209.3 46.7648 210.534 46.5473 211.453 46.1122C212.42 45.6289 213.364 44.8555 214.283 43.7921C215.251 42.7287 216.291 42.1971 217.404 42.1971ZM263.274 45.8947C264.193 45.8947 264.943 46.1364 265.524 46.6198C266.104 47.0548 266.395 47.7557 266.395 48.7224V51.55C266.395 52.5167 266.104 53.2418 265.524 53.7251C264.943 54.1601 264.193 54.3776 263.274 54.3776H255.219C254.3 54.3776 253.501 54.0635 252.824 53.4351C252.195 52.7584 251.881 51.9609 251.881 51.0425V47.5623C250.913 49.7858 249.437 51.5983 247.454 53.0001C245.519 54.4018 243.438 55.1027 241.213 55.1027C237.875 55.1027 235.165 54.1118 233.085 52.13C231.053 50.1483 230.037 47.5381 230.037 44.2997C230.037 40.6261 231.222 37.9193 233.593 36.1793C235.964 34.3908 239.544 33.4966 244.333 33.4966C246.559 33.4966 249.075 33.7625 251.881 34.2942V31.6115C251.881 29.5331 251.324 27.938 250.212 26.8263C249.147 25.7146 247.599 25.1587 245.567 25.1587C244.261 25.1587 243.293 25.3762 242.664 25.8113C242.567 27.3097 242.011 28.5664 240.995 29.5814C239.979 30.5482 238.721 31.0315 237.221 31.0315C235.577 31.0315 234.246 30.5482 233.23 29.5814C232.214 28.5664 231.706 27.2613 231.706 25.6663C231.706 23.1528 232.988 21.1469 235.552 19.6485C238.116 18.1501 241.455 17.4009 245.567 17.4009C250.937 17.4009 255.001 18.7784 257.759 21.5336C260.517 24.2404 261.895 28.0589 261.895 32.9891V45.8947H263.274ZM244.261 47.7073C246.196 47.7073 247.889 46.9098 249.341 45.3147C250.84 43.6713 251.687 41.7137 251.881 39.4419C250.284 39.1519 248.276 39.0069 245.857 39.0069C243.825 39.0069 242.35 39.3936 241.431 40.167C240.511 40.892 240.052 42.0762 240.052 43.7196C240.052 44.928 240.439 45.8947 241.213 46.6198C241.987 47.3448 243.003 47.7073 244.261 47.7073ZM276.279 54.3776C275.311 54.3776 274.537 54.1601 273.956 53.7251C273.376 53.2418 273.085 52.5167 273.085 51.55V48.7224C273.085 47.7557 273.376 47.0548 273.956 46.6198C274.537 46.1364 275.311 45.8947 276.279 45.8947H277.585V9.20797H276.279C275.311 9.20797 274.537 8.99046 273.956 8.55543C273.376 8.07208 273.085 7.34704 273.085 6.38033V3.55269C273.085 2.58598 273.376 1.88511 273.956 1.45009C274.537 0.966735 275.287 0.725057 276.206 0.725057H284.261C285.229 0.725057 286.027 1.03924 286.656 1.6676C287.285 2.29596 287.599 3.0935 287.599 4.06022V45.8947H288.978C289.898 45.8947 290.647 46.1364 291.228 46.6198C291.809 47.0548 292.099 47.7557 292.099 48.7224V51.55C292.099 52.5167 291.809 53.2418 291.228 53.7251C290.647 54.1601 289.898 54.3776 288.978 54.3776H276.279ZM301.701 54.3776C300.733 54.3776 299.959 54.1601 299.379 53.7251C298.798 53.2418 298.508 52.5167 298.508 51.55V48.7224C298.508 47.7557 298.798 47.0548 299.379 46.6198C299.959 46.1364 300.733 45.8947 301.701 45.8947H303.007V9.20797H301.701C300.733 9.20797 299.959 8.99046 299.379 8.55543C298.798 8.07208 298.508 7.34704 298.508 6.38033V3.55269C298.508 2.58598 298.798 1.88511 299.379 1.45009C299.959 0.966735 300.709 0.725057 301.628 0.725057H309.684C310.651 0.725057 311.449 1.03924 312.078 1.6676C312.707 2.29596 313.022 3.0935 313.022 4.06022V45.8947H314.401C315.32 45.8947 316.07 46.1364 316.65 46.6198C317.231 47.0548 317.521 47.7557 317.521 48.7224V51.55C317.521 52.5167 317.231 53.2418 316.65 53.7251C316.07 54.1601 315.32 54.3776 314.401 54.3776H301.701Z" fill="black"/>
</svg>
