<svg width="239" height="57" viewBox="0 0 239 57" fill="none" xmlns="http://www.w3.org/2000/svg">
<path d="M22.5938 22.5H18.8125C17.2083 22.5 16.0521 22.0938 15.3438 21.2812C14.6354 20.4479 14.2812 19.3542 14.2812 18C14.2812 15 16.5208 13.5 21 13.5C25.2083 13.5 28.375 14.125 30.5 15.375L28.6875 16.75C27.2292 16.0833 24.6667 15.75 21 15.75C19.2083 15.75 18 15.9479 17.375 16.3438C16.7708 16.7396 16.4688 17.2917 16.4688 18C16.4688 18.7083 16.6354 19.2604 16.9688 19.6562C17.3021 20.0521 17.9167 20.25 18.8125 20.25H22.6875C25.5 20.25 28.0312 20.7292 30.2812 21.6875C32.5521 22.6458 34.4167 23.9583 35.875 25.625C37.3333 27.2708 38.4479 29.1771 39.2188 31.3438C39.9896 33.4896 40.375 35.7917 40.375 38.25C40.375 40.25 40.0938 42.1458 39.5312 43.9375C38.9688 45.7292 38.1146 47.375 36.9688 48.875C35.8438 50.375 34.4792 51.6771 32.875 52.7812C31.2917 53.8646 29.3958 54.7083 27.1875 55.3125C25 55.9375 22.625 56.25 20.0625 56.25C16.0417 56.25 12.2708 55.6354 8.75 54.4062C5.25 53.1979 2.33333 51.5 0 49.3125L1.8125 47.9688C3.9375 49.8854 6.59375 51.375 9.78125 52.4375C12.9896 53.4792 16.4167 54 20.0625 54C22.9167 54 25.4896 53.5938 27.7812 52.7812C30.0938 51.9479 31.9896 50.8125 33.4688 49.375C34.9688 47.9375 36.1146 46.2708 36.9062 44.375C37.7188 42.4792 38.125 40.4375 38.125 38.25C38.125 35.3542 37.5417 32.7396 36.375 30.4062C35.2083 28.0521 33.4271 26.1458 31.0312 24.6875C28.6562 23.2292 25.8438 22.5 22.5938 22.5ZM18.8125 24.75H22.375C26.6042 24.75 29.9062 26.0417 32.2812 28.625C34.6771 31.2083 35.875 34.4167 35.875 38.25C35.875 42.1458 34.4896 45.375 31.7188 47.9375C28.9479 50.4792 25.0625 51.75 20.0625 51.75C16.7292 51.75 13.6146 51.2917 10.7188 50.375C7.82292 49.4583 5.41667 48.1667 3.5 46.5L5.25 45.0938C6.95833 46.4896 9.10417 47.5729 11.6875 48.3438C14.2917 49.1146 17.0833 49.5 20.0625 49.5C24.4583 49.5 27.8125 48.4479 30.125 46.3438C32.4583 44.2396 33.625 41.5417 33.625 38.25C33.625 35 32.6458 32.3125 30.6875 30.1875C28.75 28.0625 25.9688 27 22.3438 27H18.8125C15.7708 27 13.4896 26.1667 11.9688 24.5C10.4479 22.8333 9.6875 20.6667 9.6875 18C9.6875 15.3333 10.625 13.1667 12.5 11.5C14.3958 9.83333 17.2292 9 21 9C23.6458 9 26.1042 9.3125 28.375 9.9375C30.6458 10.5417 32.5208 11.4167 34 12.5625L32.2188 13.9375C29.6146 12.1458 25.875 11.25 21 11.25C17.8542 11.25 15.5521 11.875 14.0938 13.125C12.6562 14.3542 11.9375 15.9792 11.9375 18C11.9375 20.0417 12.4688 21.6771 13.5312 22.9062C14.6146 24.1354 16.375 24.75 18.8125 24.75ZM18.8125 29.25H22.25C25.2917 29.25 27.5729 30.0938 29.0938 31.7812C30.6146 33.4688 31.375 35.625 31.375 38.25C31.375 40.9167 30.4271 43.0833 28.5312 44.75C26.6562 46.4167 23.8333 47.25 20.0625 47.25C17.4167 47.25 14.9479 46.9479 12.6562 46.3438C10.3854 45.7188 8.51042 44.8333 7.03125 43.6875L8.8125 42.3125C11.4167 44.1042 15.1667 45 20.0625 45C23.2083 45 25.5 44.3854 26.9375 43.1562C28.3958 41.9062 29.125 40.2708 29.125 38.25C29.125 36.2292 28.5833 34.6042 27.5 33.375C26.4167 32.125 24.6562 31.5 22.2188 31.5H18.8125C14.5417 31.5 11.1979 30.2292 8.78125 27.6875C6.38542 25.125 5.1875 21.8958 5.1875 18C5.1875 14.1042 6.57292 10.8854 9.34375 8.34375C12.1146 5.78125 16 4.5 21 4.5C24.3333 4.5 27.4375 4.95833 30.3125 5.875C33.2083 6.79167 35.6146 8.08333 37.5312 9.75L35.7812 11.1562C34.0729 9.76042 31.9271 8.67708 29.3438 7.90625C26.7604 7.13542 23.9792 6.75 21 6.75C16.6042 6.75 13.2396 7.80208 10.9062 9.90625C8.59375 12.0104 7.4375 14.7083 7.4375 18C7.4375 21.2708 8.41667 23.9688 10.375 26.0938C12.3333 28.1979 15.1458 29.25 18.8125 29.25ZM18.8125 33.75H22.25C23.8542 33.75 25.0104 34.1667 25.7188 35C26.4271 35.8333 26.7812 36.9167 26.7812 38.25C26.7812 41.25 24.5417 42.75 20.0625 42.75C15.8333 42.75 12.6562 42.125 10.5312 40.875L12.3438 39.5C13.8021 40.1667 16.375 40.5 20.0625 40.5C21.8542 40.5 23.0521 40.3021 23.6562 39.9062C24.2812 39.5104 24.5938 38.9583 24.5938 38.25C24.5938 37.5625 24.4167 37.0208 24.0625 36.625C23.7292 36.2083 23.1042 36 22.1875 36H18.8125C15.9375 36 13.3333 35.5312 11 34.5938C8.6875 33.6562 6.78125 32.3646 5.28125 30.7188C3.80208 29.0729 2.66667 27.1667 1.875 25C1.08333 22.8333 0.6875 20.5 0.6875 18C0.6875 16 0.96875 14.1042 1.53125 12.3125C2.09375 10.5208 2.9375 8.875 4.0625 7.375C5.20833 5.875 6.57292 4.58333 8.15625 3.5C9.76042 2.39583 11.6562 1.54167 13.8438 0.9375C16.0521 0.3125 18.4375 0 21 0C25.0208 0 28.7812 0.614583 32.2812 1.84375C35.7812 3.05208 38.6979 4.75 41.0312 6.9375L39.2188 8.28125C37.0938 6.36458 34.4375 4.88542 31.25 3.84375C28.0625 2.78125 24.6458 2.25 21 2.25C18.1458 2.25 15.5625 2.66667 13.25 3.5C10.9583 4.3125 9.0625 5.4375 7.5625 6.875C6.08333 8.3125 4.9375 9.97917 4.125 11.875C3.33333 13.7708 2.9375 15.8125 2.9375 18C2.9375 20.9375 3.53125 23.5833 4.71875 25.9375C5.90625 28.2917 7.71875 30.1875 10.1562 31.625C12.5938 33.0417 15.4792 33.75 18.8125 33.75Z" fill="black"/>
<path d="M56.625 54H54.375V2.25H56.625V54ZM52.125 54H49.875V2.25H52.125V54ZM47.625 54H45.375V2.25H47.625V54ZM61.125 42.75H85.0625V45H61.125V47.25H85.0625V49.5H61.125V51.75H85.0625V54H58.875V2.25H85.0625V4.5H61.125V6.75H85.0625V9H61.125V11.25H85.0625V13.5H61.125V22.5H73.4062V24.75H61.125V27H73.4062V29.25H61.125V31.5H73.4062V33.75H61.125V42.75Z" fill="black"/>
<path d="M108.125 29.5H121.188C123.333 29.5 125.146 28.7812 126.625 27.3438C128.125 25.8854 128.875 23.8333 128.875 21.1875C128.875 19.2083 128.094 17.4375 126.531 15.875C124.969 14.2917 123.188 13.5 121.188 13.5H101.875V54H99.625V11.25H121.188C123.812 11.25 126.125 12.2604 128.125 14.2812C130.125 16.3021 131.125 18.6042 131.125 21.1875C131.125 24.375 130.156 26.9375 128.219 28.875C126.281 30.7917 123.938 31.75 121.188 31.75H108.125V29.5ZM108.125 34H121.188C123.354 34 125.354 33.4792 127.188 32.4375C129.042 31.375 130.531 29.8542 131.656 27.875C132.802 25.8958 133.375 23.6667 133.375 21.1875C133.375 17.9792 132.146 15.1458 129.688 12.6875C127.25 10.2292 124.417 9 121.188 9H97.375V54H95.125V6.75H121.188C123.708 6.75 126.083 7.41667 128.312 8.75C130.542 10.0833 132.312 11.8646 133.625 14.0938C134.958 16.3229 135.625 18.6875 135.625 21.1875C135.625 24.0208 134.958 26.6042 133.625 28.9375C132.292 31.25 130.521 33.0521 128.312 34.3438C126.125 35.6146 123.75 36.25 121.188 36.25H108.125V34ZM108.125 38.5H121.188C123.417 38.5 125.552 38.0625 127.594 37.1875C129.635 36.2917 131.406 35.0938 132.906 33.5938C134.427 32.0729 135.635 30.2396 136.531 28.0938C137.427 25.9271 137.875 23.625 137.875 21.1875C137.875 18.2708 137.115 15.5312 135.594 12.9688C134.073 10.3854 132.021 8.33333 129.438 6.8125C126.875 5.27083 124.125 4.5 121.188 4.5H92.875V54H90.625V2.25H121.188C124.521 2.25 127.646 3.125 130.562 4.875C133.479 6.60417 135.802 8.92708 137.531 11.8438C139.26 14.7604 140.125 17.875 140.125 21.1875C140.125 24.1458 139.615 26.875 138.594 29.375C137.573 31.8542 136.198 33.9167 134.469 35.5625C132.74 37.2083 130.729 38.4896 128.438 39.4062C126.146 40.3021 123.729 40.75 121.188 40.75H108.125V38.5ZM106.375 54H104.125V15.75H121.188C122.667 15.75 123.938 16.2917 125 17.375C126.083 18.4583 126.625 19.7292 126.625 21.1875C126.625 25.2292 124.812 27.25 121.188 27.25H108.125V25H121.188C122.188 25 122.969 24.7188 123.531 24.1562C124.094 23.5938 124.375 22.6042 124.375 21.1875C124.375 20.2708 124.062 19.5104 123.438 18.9062C122.833 18.3021 122.083 18 121.188 18H106.375V54Z" fill="black"/>
<path d="M144.062 4.5V2.25H177.812V4.5H144.062ZM144.062 9V6.75H177.812V9H144.062ZM144.062 13.5V11.25H177.812V13.5H168.812V54H166.562V13.5H164.312V54H162.062V13.5H159.812V54H157.562V13.5H155.312V54H153.062V13.5H144.062Z" fill="black"/>
<path d="M201.156 19.375C198.74 21.7917 197.531 24.7083 197.531 28.125C197.531 31.5417 198.74 34.4583 201.156 36.875C203.573 39.2917 206.49 40.5 209.906 40.5C213.323 40.5 216.24 39.2917 218.656 36.875C221.073 34.4583 222.281 31.5417 222.281 28.125C222.281 24.7083 221.073 21.7917 218.656 19.375C216.24 16.9583 213.323 15.75 209.906 15.75C206.49 15.75 203.573 16.9583 201.156 19.375ZM196.438 33.8125C195.667 32 195.281 30.1042 195.281 28.125C195.281 26.1458 195.667 24.2604 196.438 22.4688C197.208 20.6562 198.25 19.0938 199.562 17.7812C200.875 16.4688 202.427 15.4271 204.219 14.6562C206.031 13.8854 207.927 13.5 209.906 13.5C211.885 13.5 213.771 13.8854 215.562 14.6562C217.375 15.4271 218.938 16.4688 220.25 17.7812C221.562 19.0938 222.604 20.6562 223.375 22.4688C224.146 24.2604 224.531 26.1458 224.531 28.125C224.531 30.1042 224.146 32 223.375 33.8125C222.604 35.6042 221.562 37.1562 220.25 38.4688C218.938 39.7812 217.375 40.8229 215.562 41.5938C213.771 42.3646 211.885 42.75 209.906 42.75C207.927 42.75 206.031 42.3646 204.219 41.5938C202.427 40.8229 200.875 39.7812 199.562 38.4688C198.25 37.1562 197.208 35.6042 196.438 33.8125ZM195.281 19.6562C193.781 22.2396 193.031 25.0625 193.031 28.125C193.031 31.1875 193.781 34.0104 195.281 36.5938C196.802 39.1771 198.854 41.2292 201.438 42.75C204.021 44.25 206.844 45 209.906 45C212.969 45 215.792 44.25 218.375 42.75C220.958 41.2292 223 39.1771 224.5 36.5938C226.021 34.0104 226.781 31.1875 226.781 28.125C226.781 25.0625 226.021 22.2396 224.5 19.6562C223 17.0729 220.958 15.0312 218.375 13.5312C215.792 12.0104 212.969 11.25 209.906 11.25C206.844 11.25 204.021 12.0104 201.438 13.5312C198.854 15.0312 196.802 17.0729 195.281 19.6562ZM193.344 37.7188C191.635 34.7812 190.781 31.5833 190.781 28.125C190.781 24.6667 191.635 21.4688 193.344 18.5312C195.052 15.5938 197.375 13.2708 200.312 11.5625C203.25 9.85417 206.448 9 209.906 9C213.365 9 216.562 9.85417 219.5 11.5625C222.438 13.2708 224.76 15.5938 226.469 18.5312C228.177 21.4688 229.031 24.6667 229.031 28.125C229.031 31.5833 228.177 34.7812 226.469 37.7188C224.76 40.6562 222.438 42.9792 219.5 44.6875C216.562 46.3958 213.365 47.25 209.906 47.25C206.448 47.25 203.25 46.3958 200.312 44.6875C197.375 42.9792 195.052 40.6562 193.344 37.7188ZM190.219 19.8125C189.094 22.4583 188.531 25.2292 188.531 28.125C188.531 31.0208 189.094 33.7917 190.219 36.4375C191.344 39.0833 192.854 41.3646 194.75 43.2812C196.667 45.1771 198.948 46.6875 201.594 47.8125C204.24 48.9375 207.01 49.5 209.906 49.5C212.802 49.5 215.573 48.9375 218.219 47.8125C220.865 46.6875 223.135 45.1771 225.031 43.2812C226.948 41.3646 228.469 39.0833 229.594 36.4375C230.719 33.7917 231.281 31.0208 231.281 28.125C231.281 25.2292 230.719 22.4583 229.594 19.8125C228.469 17.1667 226.948 14.8958 225.031 13C223.135 11.0833 220.865 9.5625 218.219 8.4375C215.573 7.3125 212.802 6.75 209.906 6.75C207.01 6.75 204.24 7.3125 201.594 8.4375C198.948 9.5625 196.667 11.0833 194.75 13C192.854 14.8958 191.344 17.1667 190.219 19.8125ZM189.438 39.9688C187.333 36.3438 186.281 32.3958 186.281 28.125C186.281 23.8542 187.333 19.9062 189.438 16.2812C191.562 12.6562 194.438 9.79167 198.062 7.6875C201.688 5.5625 205.635 4.5 209.906 4.5C214.177 4.5 218.125 5.5625 221.75 7.6875C225.375 9.79167 228.24 12.6562 230.344 16.2812C232.469 19.9062 233.531 23.8542 233.531 28.125C233.531 32.3958 232.469 36.3438 230.344 39.9688C228.24 43.5938 225.375 46.4688 221.75 48.5938C218.125 50.6979 214.177 51.75 209.906 51.75C205.635 51.75 201.688 50.6979 198.062 48.5938C194.438 46.4688 191.562 43.5938 189.438 39.9688ZM186.062 18.0938C184.708 21.2812 184.031 24.625 184.031 28.125C184.031 31.625 184.708 34.9792 186.062 38.1875C187.438 41.375 189.281 44.125 191.594 46.4375C193.906 48.75 196.656 50.5938 199.844 51.9688C203.052 53.3229 206.406 54 209.906 54C213.406 54 216.75 53.3229 219.938 51.9688C223.146 50.5938 225.906 48.75 228.219 46.4375C230.531 44.125 232.365 41.375 233.719 38.1875C235.094 34.9792 235.781 31.625 235.781 28.125C235.781 24.625 235.094 21.2812 233.719 18.0938C232.365 14.8854 230.531 12.125 228.219 9.8125C225.906 7.5 223.146 5.66667 219.938 4.3125C216.75 2.9375 213.406 2.25 209.906 2.25C206.406 2.25 203.052 2.9375 199.844 4.3125C196.656 5.66667 193.906 7.5 191.594 9.8125C189.281 12.125 187.438 14.8854 186.062 18.0938ZM184 39.0625C182.521 35.5833 181.781 31.9375 181.781 28.125C181.781 24.3125 182.521 20.6771 184 17.2188C185.5 13.7396 187.5 10.75 190 8.25C192.521 5.72917 195.51 3.72917 198.969 2.25C202.448 0.75 206.094 0 209.906 0C213.719 0 217.354 0.75 220.812 2.25C224.292 3.72917 227.281 5.72917 229.781 8.25C232.302 10.75 234.302 13.7396 235.781 17.2188C237.281 20.6771 238.031 24.3125 238.031 28.125C238.031 31.9375 237.281 35.5833 235.781 39.0625C234.302 42.5208 232.302 45.5104 229.781 48.0312C227.281 50.5312 224.292 52.5208 220.812 54C217.354 55.5 213.719 56.25 209.906 56.25C206.094 56.25 202.448 55.5 198.969 54C195.51 52.5208 192.521 50.5312 190 48.0312C187.5 45.5104 185.5 42.5208 184 39.0625Z" fill="black"/>
</svg>
