<svg width="239" height="96" viewBox="0 0 239 96" fill="none" xmlns="http://www.w3.org/2000/svg">
<path d="M0.194603 23.8057L9.53552 24.0972C16.4115 24.0972 21.6009 23.838 25.1037 23.3198C25.4929 23.838 25.6875 24.3887 25.6875 24.9717L25.4929 25.749C22.0549 26.5263 19.8819 27.5304 18.9737 28.7611C18.2602 29.668 17.7737 31.0931 17.5142 33.0364C16.7358 40.6154 16.3466 51.3684 16.3466 65.2955C16.3466 73.6518 18.0332 80.1619 21.4063 84.8259C24.7794 89.4899 30.0337 91.8219 37.1691 91.8219C45.6667 91.8219 51.5372 89.5547 54.7806 85.0202C58.0888 80.4211 59.743 73.4251 59.743 64.0324V51.9838C59.743 40.1943 59.4186 31.9028 58.77 27.1093C57.278 26.915 54.4887 26.8178 50.402 26.8178C50.2723 26.2996 50.2074 25.749 50.2074 25.166C50.2074 24.5182 50.2723 24.0648 50.402 23.8057L61.8836 24.0972C66.8135 24.0972 70.6083 23.838 73.2678 23.3198C73.5922 23.7085 73.7543 24.2591 73.7543 24.9717L73.657 25.749C68.6622 26.8502 65.9378 30.2186 65.4837 35.8542C64.7702 44.2105 64.4134 54.413 64.4134 66.4615C64.4134 75.9838 62.0458 83.3036 57.3104 88.4211C52.64 93.4737 45.6667 96 36.3907 96C31.4607 96 27.147 95.3846 23.4496 94.1538C19.817 92.9231 16.9628 91.3684 14.8871 89.4899C12.8762 87.6113 11.2545 85.3117 10.022 82.5911C8.78955 79.8704 7.9787 77.3117 7.5895 74.915C7.26516 72.4534 7.10299 69.7976 7.10299 66.9474V52.081C7.10299 46.834 6.81109 38.5101 6.22728 27.1093C4.9948 26.915 2.9839 26.8178 0.194603 26.8178C0.0648675 26.3644 0 25.8461 0 25.2632C0 24.6802 0.0648675 24.1943 0.194603 23.8057Z" fill="white"/>
<path d="M51.4723 23.0283L66.2621 23.3198H81.2465C87.4089 23.3198 92.3713 24.6802 96.1336 27.4008C99.9608 30.1214 101.874 34.1053 101.874 39.3522C101.874 43.5628 100.447 47.1255 97.5931 50.0405C94.7389 52.9555 91.7875 54.8016 88.7387 55.5789C94.0578 56.5506 98.1769 58.6235 101.096 61.7976C104.08 64.9717 105.572 69.1174 105.572 74.2348C105.572 80.1943 102.945 84.8583 97.6904 88.2267C92.501 91.5951 86.0143 93.2794 78.2302 93.2794C64.0242 93.2794 54.813 93.5385 50.5966 94.0567C50.2723 93.668 50.1101 93.1174 50.1101 92.4049L50.2074 91.6275C53.5806 90.8502 55.786 89.6518 56.8239 88.0324C57.6672 86.7368 58.2186 85.1174 58.478 83.1741C59.2564 77.2793 59.6457 69.247 59.6457 59.0769C59.6457 37.7652 59.0619 26.915 57.8942 26.5263C56.6618 26.2024 54.5211 26.0405 51.4723 26.0405C51.3426 25.587 51.2777 25.0688 51.2777 24.4858C51.2777 23.9028 51.3426 23.417 51.4723 23.0283ZM68.0136 57.1336V76.5668C68.0136 82.6559 68.2082 86.9312 68.5974 89.3927C70.9326 89.6518 73.657 89.7814 76.7707 89.7814C83.452 89.7814 88.4144 88.6478 91.6577 86.3806C94.966 84.1134 96.6201 80.4534 96.6201 75.4008C96.6201 70.2834 94.9984 66.0405 91.755 62.6721C88.5117 59.3036 84.2953 57.6194 79.1059 57.6194H75.0193C74.6301 57.166 74.4354 56.6154 74.4354 55.9676L75.0193 54.0243H77.841C88.2198 54.0243 93.4092 49.5223 93.4092 40.5182C93.4092 36.0486 92.047 32.6478 89.3225 30.3158C86.5981 27.919 82.9979 26.7206 78.5221 26.7206C74.1111 26.7206 70.9975 26.8502 69.1812 27.1093C68.4028 30.2186 68.0136 40.2267 68.0136 57.1336Z" fill="white"/>
<path d="M141.532 54.0243L141.24 77.7328C141.24 82.4615 142.765 84.8259 145.813 84.8259L149.316 84.7287C149.576 85.0526 149.705 85.5709 149.705 86.2834L149.511 87.3522C144.516 88.2591 140.948 89.587 138.808 91.336C137.381 90.9474 136.148 90.0729 135.11 88.7126C134.137 87.2874 133.586 85.7976 133.456 84.2429C128.267 87.417 123.11 89.7814 117.985 91.336C115.78 91.336 113.509 90.1053 111.174 87.6437C108.839 85.1174 107.671 81.9757 107.671 78.2186C107.671 76.3401 108.093 74.6559 108.936 73.166C109.78 71.6113 110.785 70.5425 111.953 69.9595C116.753 67.5628 123.888 65.4575 133.359 63.6437V54.413C133.359 50.8502 132.775 48.1943 131.607 46.4453C130.505 44.6964 129.142 43.8219 127.521 43.8219C125.964 43.8219 124.277 44.1134 122.461 44.6964C120.645 45.2146 119.347 46.251 118.569 47.8057C117.856 49.3603 117.499 51.5628 117.499 54.413C117.499 54.6721 117.045 54.9636 116.137 55.2875C115.293 55.5466 114.191 55.6761 112.828 55.6761C111.531 55.6761 110.623 55.3846 110.104 54.8016C109.65 54.1538 109.423 53.2146 109.423 51.9838C109.423 49.6518 111.109 47.1255 114.482 44.4049C115.261 43.8866 117.531 43.0121 121.294 41.7814C125.121 40.5506 127.326 39.9352 127.91 39.9352C132.58 39.9352 136.018 41.2955 138.224 44.0162C140.429 46.7368 141.532 50.0729 141.532 54.0243ZM116.331 77.7328C116.331 79.2875 116.947 80.9717 118.18 82.7854C119.412 84.5992 120.807 85.5061 122.364 85.5061C123.986 85.5061 125.834 84.9555 127.91 83.8543C129.986 82.753 131.705 81.587 133.067 80.3563C133.262 76.5344 133.359 72.1296 133.359 67.1417C127.91 67.8543 123.11 69.4089 118.958 71.8057C117.207 72.6478 116.331 74.6235 116.331 77.7328Z" fill="white"/>
<path d="M148.704 43.336L144.91 43.4332C144.65 43.1093 144.52 42.6883 144.52 42.17C144.52 41.6518 144.585 41.1984 144.715 40.8097C149.126 40.2267 152.726 39.3198 155.516 38.0891C156.424 37.7004 156.975 37.5061 157.17 37.5061C157.753 37.5061 158.467 38.413 159.31 40.2267C160.154 42.0405 160.867 44.0486 161.451 46.251C168.002 42.5587 174.392 39.6437 180.619 37.5061C184.576 37.5061 187.625 39.0931 189.766 42.2672C191.906 45.3765 192.977 49.5223 192.977 54.7045L192.782 67.5304C192.782 78.3482 193.268 83.8543 194.241 84.0486C195.214 84.1781 197.031 84.2429 199.69 84.2429C199.95 84.6964 200.079 85.1822 200.079 85.7004C200.079 86.2186 199.95 86.4285 199.69 86.9467L190.739 86.9636C185.355 86.9636 181.073 87.2227 177.895 87.7409C177.57 87.3522 177.408 86.8016 177.408 86.0891L177.506 85.3117C179.387 84.8583 180.846 84.2429 181.884 83.4656C182.922 82.6235 183.571 81.8462 183.83 81.1336C184.155 80.3563 184.414 79.2227 184.609 77.7328C184.803 76.1781 184.901 73.1984 184.901 68.7935V60.7287C184.901 56.1943 184.382 52.3725 183.344 49.2632C182.89 48.0324 182.371 47.1255 181.787 46.5425C180.36 44.9879 178.641 44.2105 176.63 44.2105C174.619 44.2105 172.608 44.5992 170.597 45.3765C168.586 46.1538 167.062 46.8664 166.024 47.5142C164.986 48.1619 163.527 49.1336 161.645 50.4292C161.386 55.5466 161.256 62.413 161.256 71.0283C161.256 79.579 161.678 83.919 162.521 84.0486C163.429 84.1781 165.083 84.2429 167.484 84.2429C167.743 84.6964 167.873 85.1822 167.873 85.7004C167.873 86.2186 167.743 86.7368 167.484 87.2551L159.213 86.9636C154.283 86.9636 150.002 87.2227 146.369 87.7409C146.045 87.3522 145.883 86.8016 145.883 86.0891L145.98 85.3117C147.861 84.8583 149.321 84.2429 150.359 83.4656C151.396 82.6235 152.045 81.8462 152.305 81.1336C152.629 80.3563 152.888 78.9636 153.083 76.9555C153.342 74.8826 153.472 70.4777 153.472 63.7409C153.472 57.004 153.44 53.2794 153.375 52.5668C153.375 51.7895 153.342 50.8178 153.278 49.6518C153.213 48.4858 153.083 47.6113 152.888 47.0283C152.694 46.4453 152.402 45.83 152.013 45.1822C151.364 43.9514 150.261 43.336 148.704 43.336Z" fill="white"/>
<path d="M234.816 84.1458C235.14 84.2105 235.692 84.2429 236.47 84.2429C237.249 84.2429 237.962 84.2105 238.611 84.1458C238.87 84.7935 239 85.3765 239 85.8947C239 86.3482 238.935 86.7045 238.805 86.9636C235.821 87.1579 233.097 87.5142 230.632 88.0324C228.232 88.6154 226.902 88.9069 226.643 88.9069C225.151 88.9069 219.961 81.7166 211.075 67.336C207.637 61.6356 205.723 58.4939 205.334 57.9109L214.869 50.915C218.437 48.3239 221.745 45.4089 224.794 42.17C222.653 41.7166 220.253 41.4575 217.594 41.3927C217.399 41.0041 217.302 40.5182 217.302 39.9352L217.594 38.7692C222.913 38.9636 226.416 39.0607 228.102 39.0607C229.789 39.0607 232.254 38.9312 235.497 38.6721C235.886 39.1903 236.081 39.9676 236.081 41.0041L213.41 55.9676C216.783 61.2794 219.994 66.2996 223.043 71.0283C226.091 75.6923 228.491 78.996 230.243 80.9393C231.994 82.8826 233.519 83.9514 234.816 84.1458ZM209.615 87.2551L201.442 86.9636C196.382 86.9636 191.322 86.4856 187.236 87.0038C186.911 86.6151 187.236 86.8016 187.236 86.0891L187.333 85.3117C189.993 84.7287 191.776 83.8543 192.685 82.6883C193.658 81.4575 194.371 79.4818 194.825 76.7611C195.344 73.9757 195.604 63.8057 195.604 46.251V21.3765C195.604 15.4818 194.923 11.8866 193.56 10.5911C192.847 9.87854 191.939 9.45749 190.836 9.32794L187.333 8.93927C187.138 8.61539 187.041 8.22672 187.041 7.77328C187.041 7.25506 187.138 6.83401 187.333 6.51012C191.939 5.66802 195.506 4.63158 198.036 3.40081C199.723 2.55871 201.636 1.4251 203.777 0C204.426 0 204.945 0.323886 205.334 0.971659C203.972 9.45749 203.29 24.6478 203.29 46.5425V57.9109C203.29 74.9474 203.68 83.5951 204.458 83.8543C205.301 84.1134 207.02 84.2429 209.615 84.2429C209.81 84.6964 209.907 85.2146 209.907 85.7976C209.907 86.3806 209.81 86.8664 209.615 87.2551Z" fill="white"/>
</svg>
