<svg width="39" height="39" viewBox="0 0 39 39" fill="none" xmlns="http://www.w3.org/2000/svg">
<path d="M38.7559 19.4749C38.7559 29.9566 30.2588 38.4537 19.7771 38.4537C9.29543 38.4537 0.79834 29.9566 0.79834 19.4749C0.79834 8.99318 9.29543 0.496094 19.7771 0.496094C30.2588 0.496094 38.7559 8.99318 38.7559 19.4749Z" fill="black"/>
<path fill-rule="evenodd" clip-rule="evenodd" d="M13.846 12.3863C14.2669 11.6728 15.1865 11.4356 15.9001 11.8564L27.7091 18.8221C28.1728 19.0956 28.4543 19.5967 28.4468 20.135C28.4394 20.6733 28.144 21.1663 27.6729 21.4268L15.8639 27.9571C15.1389 28.358 14.2262 28.0953 13.8253 27.3703C13.4244 26.6454 13.6871 25.7327 14.4121 25.3318L23.9234 20.0721L14.3759 14.4404C13.6623 14.0195 13.4251 13.0999 13.846 12.3863Z" fill="#fff"/>
</svg>
