<svg width="59" height="50" viewBox="0 0 59 50" fill="none" xmlns="http://www.w3.org/2000/svg">
<path fill-rule="evenodd" clip-rule="evenodd" d="M25.0696 47.1264C37.3237 47.1264 47.2575 37.2201 47.2575 25C47.2575 12.7799 37.3237 2.87356 25.0696 2.87356C12.8155 2.87356 2.88156 12.7799 2.88156 25C2.88156 37.2201 12.8155 47.1264 25.0696 47.1264ZM25.0696 50C38.9152 50 50.1391 38.8072 50.1391 25C50.1391 11.1929 38.9152 0 25.0696 0C11.224 0 0 11.1929 0 25C0 38.8072 11.224 50 25.0696 50Z" fill="#ccc"/>
<path d="M39.7148 17.9379C39.7148 19.4276 39.2999 20.8069 38.47 22.0758C37.6678 23.3172 36.6857 24.2 35.5239 24.7241C34.362 25.2207 33.214 25.469 32.0798 25.469C31.7479 25.469 31.4298 25.4552 31.1255 25.4276C32.8682 25.7862 34.4589 26.8621 35.8973 28.6552C36.5612 29.4552 37.3081 30.4896 38.138 31.7586C38.9679 33 39.5488 33.8552 39.8808 34.3241C41.5406 36.6965 43.2003 38.6276 44.8601 40.1172C48.401 43.3172 52.9515 45.0827 58.5118 45.4138V45.8276C56.9903 46.9034 55.0816 47.6758 52.7856 48.1448C51.4301 48.4207 50.0746 48.5586 48.7191 48.5586C47.3913 48.5586 45.9805 48.3655 44.4867 47.9793C42.9929 47.5931 41.5267 47.0138 40.0883 46.2414C38.6498 45.469 37.1837 44.3517 35.6899 42.8896C34.2237 41.4276 33.0204 39.9379 32.0798 38.4207C31.1393 36.8758 30.3232 35.4138 29.6317 34.0345C28.9401 32.6276 28.2762 31.2483 27.6399 29.8965C27.0314 28.5448 26.6579 27.7172 26.5196 27.4138C25.7174 25.7586 24.9981 24.8345 24.3619 24.6414V24.2276H25.0258C26.8239 24.2276 28.3038 23.5241 29.4657 22.1172C30.1296 21.3172 30.5169 20.4896 30.6275 19.6345C30.7382 18.7517 30.7935 18.1862 30.7935 17.9379C30.7935 15.869 30.1849 14.3655 28.9678 13.4276C27.7506 12.4621 26.3674 11.9793 24.8183 11.9793H22.9926V35.7724C22.9926 36.4896 23.2554 37.1103 23.781 37.6345C24.3066 38.131 24.929 38.3793 25.6482 38.3793H26.1461V38.7931H11.2496V38.3793H11.7891C12.5083 38.3793 13.1169 38.131 13.6148 37.6345C14.1404 37.1379 14.417 36.531 14.4447 35.8138V12.8483C14.417 11.8276 13.9744 11.069 13.1169 10.5724C12.7019 10.3517 12.2593 10.2414 11.7891 10.2414H11.2911V9.82758H27.474C31.5957 9.82758 34.7217 10.5448 36.8517 11.9793C38.7604 13.2759 39.7148 15.2621 39.7148 17.9379Z" fill="#ccc"/>
</svg>
