<?xml version="1.0" standalone="no"?>
<!DOCTYPE svg PUBLIC "-//W3C//DTD SVG 20010904//EN"
 "http://www.w3.org/TR/2001/REC-SVG-20010904/DTD/svg10.dtd">
<svg version="1.0" xmlns="http://www.w3.org/2000/svg"
 width="944.000000pt" height="944.000000pt" viewBox="0 0 944.000000 944.000000"
 preserveAspectRatio="xMidYMid meet">
<metadata>
Created by potrace 1.11, written by Peter Selinger 2001-2013
</metadata>
<g transform="translate(0.000000,944.000000) scale(0.100000,-0.100000)"
fill="#000000" stroke="none">
<path d="M3779 8715 c-2 -2 -44 -6 -94 -9 -119 -8 -172 -14 -265 -30 -14 -3
-56 -9 -95 -15 -82 -13 -76 -11 -225 -45 -63 -14 -131 -31 -150 -37 -19 -5
-42 -12 -50 -14 -106 -23 -430 -146 -590 -222 -52 -25 -104 -49 -115 -54 -11
-5 -56 -30 -100 -55 -44 -25 -88 -48 -97 -51 -10 -3 -18 -9 -18 -14 0 -5 -5
-9 -11 -9 -6 0 -31 -13 -56 -30 -24 -16 -46 -30 -48 -30 -2 0 -43 -27 -92 -61
-48 -34 -103 -70 -120 -81 -18 -11 -33 -24 -33 -28 0 -5 -8 -11 -18 -14 -10
-4 -27 -14 -38 -24 -10 -9 -44 -37 -74 -60 -101 -80 -174 -146 -310 -282 -167
-168 -185 -188 -295 -325 -48 -60 -95 -119 -104 -130 -28 -35 -209 -310 -236
-360 -6 -11 -27 -47 -45 -80 -69 -123 -159 -315 -219 -463 -33 -85 -61 -157
-61 -162 0 -5 -5 -21 -12 -37 -6 -15 -12 -30 -13 -33 -10 -32 -29 -97 -31
-102 -1 -5 -2 -9 -4 -10 -1 -2 -3 -10 -5 -18 -2 -8 -15 -62 -30 -120 -26 -102
-30 -117 -40 -170 -3 -14 -7 -36 -10 -50 -3 -14 -8 -41 -11 -60 -3 -19 -7 -43
-10 -53 -6 -18 -7 -27 -24 -162 -32 -255 -34 -681 -6 -945 3 -28 19 -142 21
-150 1 -3 5 -32 10 -65 10 -64 11 -74 15 -77 1 -2 3 -12 5 -23 5 -37 16 -90
25 -125 5 -19 11 -46 14 -60 2 -14 5 -25 6 -25 1 0 3 -7 5 -15 1 -8 10 -42 19
-75 9 -33 19 -67 21 -75 10 -39 80 -242 107 -309 75 -192 172 -392 265 -549
24 -41 43 -76 43 -78 0 -3 4 -10 10 -17 5 -7 44 -64 86 -127 42 -63 85 -124
95 -136 11 -11 19 -25 19 -31 0 -6 3 -13 8 -15 4 -1 25 -25 47 -53 22 -27 44
-55 50 -62 5 -7 15 -18 20 -25 40 -54 160 -183 265 -288 151 -150 213 -205
360 -320 36 -28 73 -57 83 -65 9 -8 21 -15 26 -15 5 0 11 -4 13 -8 5 -12 198
-143 198 -134 0 4 4 2 8 -4 21 -31 399 -233 562 -301 223 -93 511 -188 634
-210 16 -2 40 -9 54 -14 14 -5 27 -7 29 -5 3 3 17 0 32 -6 14 -5 38 -11 53
-13 23 -3 67 -11 178 -31 14 -2 51 -7 82 -10 32 -3 68 -7 80 -10 84 -18 595
-26 753 -11 44 3 100 8 125 11 25 2 80 9 122 16 43 6 88 12 101 14 13 1 29 6
36 10 7 4 15 6 17 3 3 -3 20 -1 37 4 18 4 48 11 67 14 57 10 154 33 253 61 50
14 99 27 107 29 22 5 80 26 118 41 18 8 37 14 43 14 42 0 500 209 649 296 74
43 195 117 200 123 3 3 19 14 36 23 26 14 34 15 50 4 79 -54 360 -194 474
-235 19 -7 44 -17 55 -21 78 -34 364 -116 470 -136 22 -4 47 -9 55 -10 8 -2
33 -6 55 -8 22 -3 51 -8 65 -11 118 -25 568 -26 721 0 20 3 51 7 70 9 19 2 50
6 69 10 19 3 46 8 60 10 238 42 487 121 715 227 76 35 247 138 260 156 19 26
3 67 -26 69 -51 3 -185 16 -214 19 -16 3 -48 7 -69 9 -22 3 -53 7 -70 10 -55
8 -131 20 -136 21 -3 1 -25 5 -50 9 -25 4 -70 14 -100 21 -30 8 -68 16 -85 19
-16 3 -55 13 -85 21 -30 9 -79 23 -109 31 -29 8 -59 18 -65 21 -6 4 -20 9 -31
10 -21 3 -61 17 -110 38 -16 8 -42 17 -58 20 -15 4 -30 11 -33 16 -3 5 -11 9
-19 9 -30 0 -308 138 -435 215 -47 29 -114 72 -149 96 -35 24 -71 49 -80 54
-9 6 -18 12 -21 15 -3 3 -46 38 -96 77 -50 40 -97 79 -104 87 -10 13 -3 28 41
88 29 40 57 76 63 80 6 4 7 8 3 8 -5 0 5 17 21 38 31 38 212 336 212 347 0 4
9 19 19 33 10 15 19 30 20 35 0 4 23 54 51 111 91 191 194 472 245 666 9 36
19 72 22 80 3 8 7 26 9 40 3 21 12 64 41 190 3 14 7 36 8 50 1 14 7 54 13 90
6 36 14 92 17 125 4 33 8 78 10 100 20 200 20 568 0 740 -2 22 -7 67 -11 100
-3 33 -15 110 -25 170 -11 61 -21 121 -24 135 -4 24 -8 44 -35 165 -16 72 -18
80 -20 83 -2 1 -3 5 -4 10 -18 68 -69 236 -83 272 -4 8 -7 18 -7 22 -1 3 -4
10 -8 14 -5 4 -8 14 -8 23 -1 9 -9 34 -20 56 -11 22 -19 44 -20 48 -1 43 -273
584 -310 617 -3 3 -14 22 -24 43 -11 20 -22 37 -26 37 -4 0 -10 8 -14 18 -5
16 -20 41 -39 66 -133 179 -192 256 -251 326 -73 87 -235 259 -295 314 -18 17
-47 43 -64 59 -16 15 -52 46 -79 70 -28 23 -60 50 -72 61 -11 10 -66 52 -121
94 -55 42 -101 80 -103 84 -2 4 -8 8 -12 8 -5 0 -37 20 -72 44 -183 127 -525
310 -738 393 -126 49 -144 56 -150 57 -3 1 -11 5 -17 9 -7 5 -13 6 -13 2 0 -3
-9 -1 -21 5 -48 26 -381 119 -483 134 -21 4 -41 8 -45 10 -4 3 -25 7 -46 10
-22 3 -51 7 -65 10 -29 7 -65 12 -180 26 -47 5 -103 13 -125 15 -45 7 -591 16
-596 10z m571 -469 c19 -3 58 -7 85 -11 63 -7 114 -14 145 -20 14 -3 39 -7 55
-9 58 -9 191 -37 255 -56 36 -11 76 -21 90 -24 119 -21 579 -204 643 -255 9
-8 17 -11 17 -8 0 17 341 -192 470 -287 72 -54 75 -56 150 -118 36 -29 74 -60
84 -68 10 -8 81 -76 156 -150 158 -155 295 -314 412 -479 202 -285 375 -631
477 -956 60 -190 60 -187 65 -220 3 -16 10 -45 15 -62 5 -18 8 -33 5 -33 -3 0
0 -8 5 -18 5 -10 12 -36 15 -58 2 -21 7 -50 10 -64 10 -45 18 -94 21 -135 2
-22 4 -40 5 -40 1 0 3 -11 4 -25 2 -14 6 -47 9 -75 4 -27 9 -108 13 -180 3
-71 7 -147 8 -167 1 -21 -1 -38 -4 -38 -3 0 -5 -44 -6 -98 0 -98 -10 -246 -19
-292 -2 -14 -7 -47 -9 -75 -3 -27 -7 -59 -9 -70 -6 -26 -19 -103 -18 -110 0
-2 -5 -19 -10 -37 -5 -18 -12 -46 -15 -63 -2 -16 -7 -38 -10 -47 -3 -9 -6 -25
-8 -35 -2 -10 -10 -38 -17 -63 -7 -25 -14 -49 -14 -55 -3 -35 -115 -343 -158
-435 -12 -25 -21 -47 -22 -50 -3 -16 -90 -188 -134 -264 -28 -49 -51 -93 -51
-97 0 -5 -4 -9 -10 -9 -5 0 -10 -5 -10 -11 0 -6 -13 -29 -28 -52 -16 -23 -36
-53 -45 -67 -48 -73 -90 -131 -98 -136 -6 -3 -19 6 -31 21 -12 15 -29 35 -38
44 -34 33 -268 329 -340 431 -41 58 -77 107 -80 110 -3 3 -46 66 -96 140 -136
201 -298 440 -325 480 -35 51 -171 233 -183 246 -6 6 -24 29 -41 50 -31 41
-223 235 -265 269 -55 43 -159 109 -225 142 -83 42 -192 83 -199 75 -3 -3 -6
-1 -6 4 0 6 39 10 93 11 93 0 177 7 232 19 36 7 59 12 63 13 1 1 4 1 7 2 2 0
19 5 37 11 18 5 40 11 48 12 8 1 25 8 38 14 12 7 22 9 22 5 0 -4 5 -2 12 5 7
7 18 12 26 12 14 0 162 68 172 79 3 4 25 19 48 34 65 42 155 125 231 213 32
37 131 189 131 201 0 7 5 13 10 13 6 0 10 9 10 20 0 11 5 20 10 20 6 0 10 9
10 19 0 11 4 21 8 23 17 6 83 235 95 328 30 230 -3 486 -88 682 -36 83 -104
198 -117 198 -5 0 -8 5 -8 11 0 26 -220 229 -248 229 -5 0 -15 7 -22 15 -10
13 -211 115 -267 136 -13 5 -33 13 -45 18 -73 30 -337 101 -398 106 -19 2 -35
4 -35 6 0 1 -11 3 -25 5 -14 2 -38 6 -55 8 -102 15 -135 19 -172 20 -24 0 -43
3 -43 6 0 3 -30 5 -66 5 -36 0 -68 3 -70 6 -2 3 -649 6 -1439 7 -1082 0 -1435
-3 -1436 -11 0 -7 -2 -21 -3 -33 -2 -19 3 -21 58 -23 59 -1 128 -8 134 -12 1
-1 5 -2 10 -4 54 -15 130 -58 172 -97 53 -50 85 -101 110 -177 l22 -65 -1
-1880 c0 -1035 -3 -1894 -6 -1911 -17 -90 -52 -157 -119 -225 -45 -46 -123
-100 -150 -104 -6 -1 -17 -5 -24 -10 -7 -4 -58 -10 -113 -13 l-100 -6 3 -31 3
-31 1183 -1 c858 0 1185 2 1192 11 5 6 8 20 6 30 -2 17 -14 21 -82 27 -115 9
-124 11 -184 40 -126 59 -214 175 -235 313 -8 50 -8 143 0 155 3 6 3 10 -2 10
-4 0 -8 27 -8 60 0 33 4 60 8 60 5 0 5 5 1 11 -8 14 -8 325 1 339 3 6 2 10 -2
10 -8 0 -8 20 -3 95 1 17 1 35 0 40 -4 26 0 327 5 335 4 6 3 10 -2 10 -4 0 -8
27 -8 60 0 33 4 60 8 60 5 0 5 5 1 11 -8 14 -8 325 1 339 3 6 2 10 -2 10 -8 0
-8 20 -3 95 1 17 1 35 0 40 -4 26 0 327 5 335 4 6 3 10 -2 10 -4 0 -8 27 -8
60 0 33 4 60 8 60 5 0 5 5 1 11 -8 14 -8 325 1 339 3 6 2 10 -2 10 -8 0 -8 20
-3 95 1 17 1 35 0 40 -4 26 0 327 5 335 4 6 3 10 -2 10 -4 0 -8 27 -8 60 0 33
4 60 8 60 5 0 5 5 1 11 -8 14 -8 325 1 339 3 6 2 10 -2 10 -8 0 -8 20 -3 95 1
17 1 35 0 40 -2 10 0 182 2 200 2 12 297 13 316 1 7 -4 12 -3 12 1 0 19 268
-27 329 -57 9 -4 48 -22 86 -40 160 -74 312 -203 378 -321 39 -70 76 -159 83
-199 3 -14 8 -34 11 -45 24 -79 34 -296 19 -425 -14 -124 -30 -225 -36 -225
-1 0 -3 -10 -6 -23 -7 -37 -72 -161 -118 -226 -154 -213 -367 -347 -611 -382
-27 -4 -94 -8 -147 -8 l-98 -1 0 -35 c0 -29 5 -37 28 -48 97 -42 224 -227 353
-514 158 -348 219 -481 230 -498 5 -8 14 -26 19 -39 41 -95 291 -596 344 -689
20 -35 36 -68 36 -72 0 -5 3 -10 8 -12 4 -1 18 -25 32 -53 14 -27 28 -52 31
-55 3 -3 22 -34 42 -70 20 -36 51 -87 67 -115 17 -27 33 -57 37 -65 8 -18 181
-268 193 -280 3 -3 21 -25 40 -50 19 -25 37 -47 40 -50 3 -3 30 -34 60 -70 30
-36 66 -78 80 -94 50 -58 279 -285 304 -301 14 -10 26 -20 26 -24 0 -6 -115
-81 -126 -81 -3 0 -33 -16 -67 -36 -34 -20 -63 -36 -65 -35 -1 1 -29 -13 -63
-29 -175 -89 -556 -223 -724 -255 -16 -3 -34 -7 -40 -9 -37 -11 -64 -17 -90
-20 -16 -3 -41 -7 -55 -10 -24 -5 -70 -12 -140 -22 -147 -22 -269 -29 -495
-29 -230 1 -357 8 -500 31 -22 3 -53 8 -70 10 -16 3 -50 9 -75 14 -25 5 -56
12 -70 14 -14 2 -56 11 -93 21 -37 9 -73 18 -80 19 -226 47 -703 246 -927 387
-171 108 -210 134 -210 141 0 4 -5 8 -10 8 -10 0 -176 122 -230 169 -14 12
-52 46 -85 74 -33 29 -105 97 -160 153 -89 89 -126 129 -220 239 -32 37 -153
197 -185 245 -13 19 -27 37 -30 40 -3 3 -10 14 -17 25 -6 11 -37 61 -68 112
-31 50 -67 111 -80 135 -30 57 -108 212 -110 218 0 3 -8 21 -17 40 -68 143
-156 398 -204 590 -25 101 -33 140 -50 245 -3 17 -10 57 -16 90 -5 33 -12 78
-14 100 -1 22 -6 74 -10 115 -14 160 -8 599 10 710 3 14 7 45 10 70 4 25 8 59
11 75 13 78 24 136 29 160 2 6 6 28 10 50 5 22 14 63 22 91 8 28 16 60 18 70
2 11 17 60 32 109 15 50 29 92 29 95 1 3 4 12 8 20 3 8 14 40 25 70 11 30 26
69 33 85 7 17 13 32 14 35 6 18 21 52 43 100 14 30 26 57 27 60 1 12 51 107
70 135 11 17 19 32 19 35 -2 5 29 63 51 99 6 9 24 39 40 66 85 143 264 386
379 514 112 124 301 304 419 398 39 32 74 61 75 66 2 4 8 7 14 7 5 0 15 6 22
13 29 28 203 147 216 147 6 0 10 4 10 9 0 5 10 13 23 17 12 4 24 10 27 14 16
22 448 243 460 235 5 -3 10 -2 12 3 5 12 284 115 298 110 3 -1 15 4 28 11 40
21 320 91 432 107 19 3 58 9 85 14 64 12 127 19 240 26 49 3 92 7 94 9 5 6
495 -3 541 -9z"/>
</g>
</svg>
